<svg xmlns="http://www.w3.org/2000/svg" version="1.1" xmlns:xlink="http://www.w3.org/1999/xlink" xmlns:svgjs="http://svgjs.com/svgjs" width="1440" height="560" preserveAspectRatio="none" viewBox="0 0 1440 560"><g mask="url(&quot;#SvgjsMask1007&quot;)" fill="none"><rect width="1440" height="560" x="0" y="0" fill="rgba(255, 220, 115, 1)"></rect><path d="M672 272L671 130" stroke-width="6" stroke="url(#SvgjsLinearGradient1008)" stroke-linecap="round" class="Down"></path><path d="M109 411L108 71" stroke-width="10" stroke="url(#SvgjsLinearGradient1008)" stroke-linecap="round" class="Down"></path><path d="M757 175L756 -151" stroke-width="6" stroke="url(#SvgjsLinearGradient1008)" stroke-linecap="round" class="Down"></path><path d="M663 408L662 91" stroke-width="8" stroke="url(#SvgjsLinearGradient1008)" stroke-linecap="round" class="Down"></path><path d="M1437 274L1436 -44" stroke-width="6" stroke="url(#SvgjsLinearGradient1008)" stroke-linecap="round" class="Down"></path><path d="M387 397L386 581" stroke-width="10" stroke="url(#SvgjsLinearGradient1009)" stroke-linecap="round" class="Up"></path><path d="M1408 22L1407 -155" stroke-width="10" stroke="url(#SvgjsLinearGradient1008)" stroke-linecap="round" class="Down"></path><path d="M297 407L296 53" stroke-width="6" stroke="url(#SvgjsLinearGradient1009)" stroke-linecap="round" class="Up"></path><path d="M1022 181L1021 490" stroke-width="10" stroke="url(#SvgjsLinearGradient1009)" stroke-linecap="round" class="Up"></path><path d="M1014 130L1013 -57" stroke-width="10" stroke="url(#SvgjsLinearGradient1009)" stroke-linecap="round" class="Up"></path><path d="M1007 363L1006 681" stroke-width="10" stroke="url(#SvgjsLinearGradient1008)" stroke-linecap="round" class="Down"></path><path d="M746 534L745 916" stroke-width="8" stroke="url(#SvgjsLinearGradient1009)" stroke-linecap="round" class="Up"></path><path d="M1423 400L1422 171" stroke-width="10" stroke="url(#SvgjsLinearGradient1009)" stroke-linecap="round" class="Up"></path><path d="M767 3L766 323" stroke-width="8" stroke="url(#SvgjsLinearGradient1009)" stroke-linecap="round" class="Up"></path><path d="M225 546L224 142" stroke-width="10" stroke="url(#SvgjsLinearGradient1008)" stroke-linecap="round" class="Down"></path><path d="M85 344L84 557" stroke-width="6" stroke="url(#SvgjsLinearGradient1008)" stroke-linecap="round" class="Down"></path><path d="M312 509L311 851" stroke-width="10" stroke="url(#SvgjsLinearGradient1008)" stroke-linecap="round" class="Down"></path><path d="M947 223L946 481" stroke-width="10" stroke="url(#SvgjsLinearGradient1008)" stroke-linecap="round" class="Down"></path><path d="M802 415L801 3" stroke-width="6" stroke="url(#SvgjsLinearGradient1009)" stroke-linecap="round" class="Up"></path><path d="M1427 336L1426 191" stroke-width="8" stroke="url(#SvgjsLinearGradient1008)" stroke-linecap="round" class="Down"></path><path d="M996 417L995 629" stroke-width="8" stroke="url(#SvgjsLinearGradient1008)" stroke-linecap="round" class="Down"></path><path d="M1074 177L1073 -116" stroke-width="10" stroke="url(#SvgjsLinearGradient1009)" stroke-linecap="round" class="Up"></path><path d="M82 53L81 -128" stroke-width="6" stroke="url(#SvgjsLinearGradient1009)" stroke-linecap="round" class="Up"></path><path d="M848 119L847 -255" stroke-width="10" stroke="url(#SvgjsLinearGradient1009)" stroke-linecap="round" class="Up"></path><path d="M997 277L996 58" stroke-width="6" stroke="url(#SvgjsLinearGradient1008)" stroke-linecap="round" class="Down"></path><path d="M539 400L538 810" stroke-width="6" stroke="url(#SvgjsLinearGradient1008)" stroke-linecap="round" class="Down"></path><path d="M1094 549L1093 180" stroke-width="6" stroke="url(#SvgjsLinearGradient1008)" stroke-linecap="round" class="Down"></path><path d="M389 78L388 -80" stroke-width="8" stroke="url(#SvgjsLinearGradient1009)" stroke-linecap="round" class="Up"></path><path d="M793 384L792 570" stroke-width="8" stroke="url(#SvgjsLinearGradient1008)" stroke-linecap="round" class="Down"></path><path d="M1040 252L1039 -1" stroke-width="10" stroke="url(#SvgjsLinearGradient1008)" stroke-linecap="round" class="Down"></path><path d="M238 539L237 864" stroke-width="6" stroke="url(#SvgjsLinearGradient1008)" stroke-linecap="round" class="Down"></path><path d="M893 553L892 945" stroke-width="6" stroke="url(#SvgjsLinearGradient1008)" stroke-linecap="round" class="Down"></path><path d="M287 258L286 516" stroke-width="8" stroke="url(#SvgjsLinearGradient1008)" stroke-linecap="round" class="Down"></path><path d="M950 255L949 523" stroke-width="8" stroke="url(#SvgjsLinearGradient1009)" stroke-linecap="round" class="Up"></path><path d="M220 285L219 -9" stroke-width="10" stroke="url(#SvgjsLinearGradient1009)" stroke-linecap="round" class="Up"></path><path d="M368 466L367 750" stroke-width="10" stroke="url(#SvgjsLinearGradient1009)" stroke-linecap="round" class="Up"></path></g><defs><mask id="SvgjsMask1007"><rect width="1440" height="560" fill="#ffffff"></rect></mask><linearGradient x1="0%" y1="0%" x2="0%" y2="100%" id="SvgjsLinearGradient1008"><stop stop-color="rgba(254, 165, 42, 0)" offset="0"></stop><stop stop-color="rgba(254, 165, 42, 1)" offset="1"></stop></linearGradient><linearGradient x1="0%" y1="100%" x2="0%" y2="0%" id="SvgjsLinearGradient1009"><stop stop-color="rgba(254, 165, 42, 0)" offset="0"></stop><stop stop-color="rgba(254, 165, 42, 1)" offset="1"></stop></linearGradient></defs></svg>